<svg id="visual" viewBox="0 0 1920 1080" width="1920" height="1080" xmlns="http://www.w3.org/2000/svg" xmlns:xlink="http://www.w3.org/1999/xlink" version="1.1"><path d="M0 401L45.7 392C91.3 383 182.7 365 274.2 372.2C365.7 379.3 457.3 411.7 548.8 422.2C640.3 432.7 731.7 421.3 823 401.8C914.3 382.3 1005.7 354.7 1097 350.8C1188.3 347 1279.7 367 1371.2 368.7C1462.7 370.3 1554.3 353.7 1645.8 352C1737.3 350.3 1828.7 363.7 1874.3 370.3L1920 377L1920 0L1874.3 0C1828.7 0 1737.3 0 1645.8 0C1554.3 0 1462.7 0 1371.2 0C1279.7 0 1188.3 0 1097 0C1005.7 0 914.3 0 823 0C731.7 0 640.3 0 548.8 0C457.3 0 365.7 0 274.2 0C182.7 0 91.3 0 45.7 0L0 0Z" fill="#fa7268"></path><path d="M0 234L45.7 236.5C91.3 239 182.7 244 274.2 244C365.7 244 457.3 239 548.8 233.3C640.3 227.7 731.7 221.3 823 226C914.3 230.7 1005.7 246.3 1097 259C1188.3 271.7 1279.7 281.3 1371.2 284C1462.7 286.7 1554.3 282.3 1645.8 286.3C1737.3 290.3 1828.7 302.7 1874.3 308.8L1920 315L1920 0L1874.3 0C1828.7 0 1737.3 0 1645.8 0C1554.3 0 1462.7 0 1371.2 0C1279.7 0 1188.3 0 1097 0C1005.7 0 914.3 0 823 0C731.7 0 640.3 0 548.8 0C457.3 0 365.7 0 274.2 0C182.7 0 91.3 0 45.7 0L0 0Z" fill="#ef5f67"></path><path d="M0 183L45.7 187.3C91.3 191.7 182.7 200.3 274.2 215.8C365.7 231.3 457.3 253.7 548.8 255.5C640.3 257.3 731.7 238.7 823 224.8C914.3 211 1005.7 202 1097 193.7C1188.3 185.3 1279.7 177.7 1371.2 184.3C1462.7 191 1554.3 212 1645.8 219.7C1737.3 227.3 1828.7 221.7 1874.3 218.8L1920 216L1920 0L1874.3 0C1828.7 0 1737.3 0 1645.8 0C1554.3 0 1462.7 0 1371.2 0C1279.7 0 1188.3 0 1097 0C1005.7 0 914.3 0 823 0C731.7 0 640.3 0 548.8 0C457.3 0 365.7 0 274.2 0C182.7 0 91.3 0 45.7 0L0 0Z" fill="#e34c67"></path><path d="M0 125L45.7 132.2C91.3 139.3 182.7 153.7 274.2 162.5C365.7 171.3 457.3 174.7 548.8 171.3C640.3 168 731.7 158 823 152.3C914.3 146.7 1005.7 145.3 1097 142C1188.3 138.7 1279.7 133.3 1371.2 137.7C1462.7 142 1554.3 156 1645.8 157.5C1737.3 159 1828.7 148 1874.3 142.5L1920 137L1920 0L1874.3 0C1828.7 0 1737.3 0 1645.8 0C1554.3 0 1462.7 0 1371.2 0C1279.7 0 1188.3 0 1097 0C1005.7 0 914.3 0 823 0C731.7 0 640.3 0 548.8 0C457.3 0 365.7 0 274.2 0C182.7 0 91.3 0 45.7 0L0 0Z" fill="#d53867"></path><path d="M0 52L45.7 58.5C91.3 65 182.7 78 274.2 79.8C365.7 81.7 457.3 72.3 548.8 75.7C640.3 79 731.7 95 823 101C914.3 107 1005.7 103 1097 105.3C1188.3 107.7 1279.7 116.3 1371.2 108.2C1462.7 100 1554.3 75 1645.8 66C1737.3 57 1828.7 64 1874.3 67.5L1920 71L1920 0L1874.3 0C1828.7 0 1737.3 0 1645.8 0C1554.3 0 1462.7 0 1371.2 0C1279.7 0 1188.3 0 1097 0C1005.7 0 914.3 0 823 0C731.7 0 640.3 0 548.8 0C457.3 0 365.7 0 274.2 0C182.7 0 91.3 0 45.7 0L0 0Z" fill="#c62368"></path></svg>